<mxfile host="app.diagrams.net" modified="2021-05-14T07:27:07.125Z" agent="5.0 (Windows NT 10.0; Win64; x64) AppleWebKit/537.36 (KHTML, like Gecko) Chrome/90.0.4430.212 Safari/537.36" etag="B1f0_2zadoFtAYKoPpAa" version="14.6.12" type="github">
  <diagram id="4fnfYVpl7zJbcLl9YY_H" name="第 1 页">
    <mxGraphModel dx="1730" dy="913" grid="1" gridSize="10" guides="1" tooltips="1" connect="1" arrows="1" fold="1" page="1" pageScale="1" pageWidth="827" pageHeight="1169" math="0" shadow="0">
      <root>
        <mxCell id="0" />
        <mxCell id="1" parent="0" />
        <mxCell id="SITUzHL4uQJsrREtibzH-1" value="" style="rounded=1;whiteSpace=wrap;html=1;fillColor=#d5e8d4;strokeColor=#82b366;" parent="1" vertex="1">
          <mxGeometry x="100" y="60" width="120" height="480" as="geometry" />
        </mxCell>
        <mxCell id="SITUzHL4uQJsrREtibzH-2" style="edgeStyle=orthogonalEdgeStyle;rounded=0;orthogonalLoop=1;jettySize=auto;html=1;exitX=0;exitY=0.25;exitDx=0;exitDy=0;entryX=1;entryY=0.25;entryDx=0;entryDy=0;endArrow=none;endFill=0;" parent="1" source="SITUzHL4uQJsrREtibzH-1" target="SITUzHL4uQJsrREtibzH-1" edge="1">
          <mxGeometry relative="1" as="geometry">
            <Array as="points">
              <mxPoint x="180" y="180" />
              <mxPoint x="180" y="180" />
            </Array>
          </mxGeometry>
        </mxCell>
        <mxCell id="SITUzHL4uQJsrREtibzH-3" style="edgeStyle=orthogonalEdgeStyle;rounded=0;orthogonalLoop=1;jettySize=auto;html=1;exitX=0;exitY=0.25;exitDx=0;exitDy=0;entryX=1;entryY=0.25;entryDx=0;entryDy=0;endArrow=none;endFill=0;" parent="1" edge="1">
          <mxGeometry relative="1" as="geometry">
            <mxPoint x="100" y="120" as="sourcePoint" />
            <mxPoint x="220" y="120" as="targetPoint" />
            <Array as="points">
              <mxPoint x="180" y="120" />
              <mxPoint x="180" y="120" />
            </Array>
          </mxGeometry>
        </mxCell>
        <mxCell id="SITUzHL4uQJsrREtibzH-4" style="edgeStyle=orthogonalEdgeStyle;rounded=0;orthogonalLoop=1;jettySize=auto;html=1;exitX=0;exitY=0.25;exitDx=0;exitDy=0;entryX=1;entryY=0.25;entryDx=0;entryDy=0;endArrow=none;endFill=0;" parent="1" edge="1">
          <mxGeometry relative="1" as="geometry">
            <mxPoint x="100" y="240" as="sourcePoint" />
            <mxPoint x="220" y="240" as="targetPoint" />
            <Array as="points">
              <mxPoint x="180" y="240" />
              <mxPoint x="180" y="240" />
            </Array>
          </mxGeometry>
        </mxCell>
        <mxCell id="SITUzHL4uQJsrREtibzH-5" style="edgeStyle=orthogonalEdgeStyle;rounded=0;orthogonalLoop=1;jettySize=auto;html=1;exitX=0;exitY=0.25;exitDx=0;exitDy=0;entryX=1;entryY=0.25;entryDx=0;entryDy=0;endArrow=none;endFill=0;" parent="1" edge="1">
          <mxGeometry relative="1" as="geometry">
            <mxPoint x="100" y="299.5" as="sourcePoint" />
            <mxPoint x="220" y="299.5" as="targetPoint" />
            <Array as="points">
              <mxPoint x="180" y="299.5" />
              <mxPoint x="180" y="299.5" />
            </Array>
          </mxGeometry>
        </mxCell>
        <mxCell id="SITUzHL4uQJsrREtibzH-6" style="edgeStyle=orthogonalEdgeStyle;rounded=0;orthogonalLoop=1;jettySize=auto;html=1;exitX=0;exitY=0.25;exitDx=0;exitDy=0;entryX=1;entryY=0.25;entryDx=0;entryDy=0;endArrow=none;endFill=0;" parent="1" edge="1">
          <mxGeometry relative="1" as="geometry">
            <mxPoint x="100" y="360" as="sourcePoint" />
            <mxPoint x="220" y="360" as="targetPoint" />
            <Array as="points">
              <mxPoint x="180" y="360" />
              <mxPoint x="180" y="360" />
            </Array>
          </mxGeometry>
        </mxCell>
        <mxCell id="SITUzHL4uQJsrREtibzH-7" style="edgeStyle=orthogonalEdgeStyle;rounded=0;orthogonalLoop=1;jettySize=auto;html=1;exitX=0;exitY=0.25;exitDx=0;exitDy=0;entryX=1;entryY=0.25;entryDx=0;entryDy=0;endArrow=none;endFill=0;" parent="1" edge="1">
          <mxGeometry relative="1" as="geometry">
            <mxPoint x="100" y="420" as="sourcePoint" />
            <mxPoint x="220" y="420" as="targetPoint" />
            <Array as="points">
              <mxPoint x="180" y="420" />
              <mxPoint x="180" y="420" />
            </Array>
          </mxGeometry>
        </mxCell>
        <mxCell id="SITUzHL4uQJsrREtibzH-8" style="edgeStyle=orthogonalEdgeStyle;rounded=0;orthogonalLoop=1;jettySize=auto;html=1;exitX=0;exitY=0.25;exitDx=0;exitDy=0;entryX=1;entryY=0.25;entryDx=0;entryDy=0;endArrow=none;endFill=0;" parent="1" edge="1">
          <mxGeometry relative="1" as="geometry">
            <mxPoint x="100" y="480" as="sourcePoint" />
            <mxPoint x="220" y="480" as="targetPoint" />
            <Array as="points">
              <mxPoint x="180" y="480" />
              <mxPoint x="180" y="480" />
            </Array>
          </mxGeometry>
        </mxCell>
        <mxCell id="SITUzHL4uQJsrREtibzH-14" style="edgeStyle=orthogonalEdgeStyle;rounded=1;orthogonalLoop=1;jettySize=auto;html=1;exitX=0;exitY=0.5;exitDx=0;exitDy=0;endArrow=none;endFill=0;startArrow=classic;startFill=1;entryX=0.997;entryY=0.181;entryDx=0;entryDy=0;entryPerimeter=0;" parent="1" source="SITUzHL4uQJsrREtibzH-9" target="SITUzHL4uQJsrREtibzH-1" edge="1">
          <mxGeometry relative="1" as="geometry">
            <mxPoint x="224" y="160" as="targetPoint" />
          </mxGeometry>
        </mxCell>
        <mxCell id="SITUzHL4uQJsrREtibzH-9" value="" style="rounded=1;whiteSpace=wrap;html=1;fillColor=#dae8fc;strokeColor=#6c8ebf;" parent="1" vertex="1">
          <mxGeometry x="300" y="100" width="100" height="60" as="geometry" />
        </mxCell>
        <mxCell id="SITUzHL4uQJsrREtibzH-15" style="edgeStyle=orthogonalEdgeStyle;rounded=1;orthogonalLoop=1;jettySize=auto;html=1;exitX=0;exitY=0.5;exitDx=0;exitDy=0;entryX=1;entryY=0.5;entryDx=0;entryDy=0;startArrow=classic;startFill=1;endArrow=none;endFill=0;" parent="1" source="SITUzHL4uQJsrREtibzH-11" target="SITUzHL4uQJsrREtibzH-9" edge="1">
          <mxGeometry relative="1" as="geometry" />
        </mxCell>
        <mxCell id="SITUzHL4uQJsrREtibzH-11" value="" style="rounded=1;whiteSpace=wrap;html=1;fillColor=#dae8fc;strokeColor=#6c8ebf;" parent="1" vertex="1">
          <mxGeometry x="480" y="70" width="100" height="60" as="geometry" />
        </mxCell>
        <mxCell id="SITUzHL4uQJsrREtibzH-16" style="edgeStyle=orthogonalEdgeStyle;rounded=1;orthogonalLoop=1;jettySize=auto;html=1;exitX=0;exitY=0.5;exitDx=0;exitDy=0;entryX=1;entryY=0.5;entryDx=0;entryDy=0;startArrow=classic;startFill=1;endArrow=none;endFill=0;" parent="1" source="SITUzHL4uQJsrREtibzH-12" target="SITUzHL4uQJsrREtibzH-11" edge="1">
          <mxGeometry relative="1" as="geometry" />
        </mxCell>
        <mxCell id="SITUzHL4uQJsrREtibzH-12" value="" style="rounded=1;whiteSpace=wrap;html=1;fillColor=#dae8fc;strokeColor=#6c8ebf;" parent="1" vertex="1">
          <mxGeometry x="640" y="110" width="100" height="60" as="geometry" />
        </mxCell>
        <mxCell id="SITUzHL4uQJsrREtibzH-33" style="edgeStyle=orthogonalEdgeStyle;rounded=1;orthogonalLoop=1;jettySize=auto;html=1;exitX=0.5;exitY=0;exitDx=0;exitDy=0;entryX=1.01;entryY=0.446;entryDx=0;entryDy=0;entryPerimeter=0;startArrow=classic;startFill=1;endArrow=none;endFill=0;" parent="1" source="SITUzHL4uQJsrREtibzH-17" target="SITUzHL4uQJsrREtibzH-1" edge="1">
          <mxGeometry relative="1" as="geometry" />
        </mxCell>
        <mxCell id="SITUzHL4uQJsrREtibzH-17" value="" style="ellipse;whiteSpace=wrap;html=1;aspect=fixed;" parent="1" vertex="1">
          <mxGeometry x="450" y="250" width="40" height="40" as="geometry" />
        </mxCell>
        <mxCell id="SITUzHL4uQJsrREtibzH-25" style="edgeStyle=orthogonalEdgeStyle;rounded=1;orthogonalLoop=1;jettySize=auto;html=1;exitX=1;exitY=0;exitDx=0;exitDy=0;entryX=0;entryY=1;entryDx=0;entryDy=0;startArrow=classic;startFill=1;endArrow=none;endFill=0;" parent="1" source="SITUzHL4uQJsrREtibzH-18" target="SITUzHL4uQJsrREtibzH-17" edge="1">
          <mxGeometry relative="1" as="geometry" />
        </mxCell>
        <mxCell id="SITUzHL4uQJsrREtibzH-18" value="" style="ellipse;whiteSpace=wrap;html=1;aspect=fixed;" parent="1" vertex="1">
          <mxGeometry x="394" y="300" width="40" height="40" as="geometry" />
        </mxCell>
        <mxCell id="SITUzHL4uQJsrREtibzH-27" style="edgeStyle=orthogonalEdgeStyle;rounded=1;orthogonalLoop=1;jettySize=auto;html=1;exitX=0;exitY=0;exitDx=0;exitDy=0;entryX=1;entryY=1;entryDx=0;entryDy=0;startArrow=classic;startFill=1;endArrow=none;endFill=0;" parent="1" source="SITUzHL4uQJsrREtibzH-19" target="SITUzHL4uQJsrREtibzH-17" edge="1">
          <mxGeometry relative="1" as="geometry" />
        </mxCell>
        <mxCell id="SITUzHL4uQJsrREtibzH-19" value="" style="ellipse;whiteSpace=wrap;html=1;aspect=fixed;" parent="1" vertex="1">
          <mxGeometry x="500" y="300" width="40" height="40" as="geometry" />
        </mxCell>
        <mxCell id="SITUzHL4uQJsrREtibzH-28" style="edgeStyle=orthogonalEdgeStyle;rounded=1;orthogonalLoop=1;jettySize=auto;html=1;exitX=0.5;exitY=0;exitDx=0;exitDy=0;entryX=0;entryY=1;entryDx=0;entryDy=0;startArrow=classic;startFill=1;endArrow=none;endFill=0;" parent="1" source="SITUzHL4uQJsrREtibzH-20" target="SITUzHL4uQJsrREtibzH-18" edge="1">
          <mxGeometry relative="1" as="geometry" />
        </mxCell>
        <mxCell id="SITUzHL4uQJsrREtibzH-20" value="" style="ellipse;whiteSpace=wrap;html=1;aspect=fixed;" parent="1" vertex="1">
          <mxGeometry x="354" y="360" width="40" height="40" as="geometry" />
        </mxCell>
        <mxCell id="SITUzHL4uQJsrREtibzH-29" style="edgeStyle=orthogonalEdgeStyle;rounded=1;orthogonalLoop=1;jettySize=auto;html=1;exitX=0;exitY=0;exitDx=0;exitDy=0;entryX=1;entryY=1;entryDx=0;entryDy=0;startArrow=classic;startFill=1;endArrow=none;endFill=0;" parent="1" source="SITUzHL4uQJsrREtibzH-21" target="SITUzHL4uQJsrREtibzH-18" edge="1">
          <mxGeometry relative="1" as="geometry" />
        </mxCell>
        <mxCell id="SITUzHL4uQJsrREtibzH-21" value="" style="ellipse;whiteSpace=wrap;html=1;aspect=fixed;" parent="1" vertex="1">
          <mxGeometry x="434" y="360" width="40" height="40" as="geometry" />
        </mxCell>
        <mxCell id="SITUzHL4uQJsrREtibzH-30" style="edgeStyle=orthogonalEdgeStyle;rounded=1;orthogonalLoop=1;jettySize=auto;html=1;exitX=0;exitY=0;exitDx=0;exitDy=0;entryX=0.5;entryY=1;entryDx=0;entryDy=0;startArrow=classic;startFill=1;endArrow=none;endFill=0;" parent="1" source="SITUzHL4uQJsrREtibzH-22" target="SITUzHL4uQJsrREtibzH-19" edge="1">
          <mxGeometry relative="1" as="geometry" />
        </mxCell>
        <mxCell id="SITUzHL4uQJsrREtibzH-22" value="" style="ellipse;whiteSpace=wrap;html=1;aspect=fixed;" parent="1" vertex="1">
          <mxGeometry x="500" y="360" width="40" height="40" as="geometry" />
        </mxCell>
        <mxCell id="SITUzHL4uQJsrREtibzH-31" style="edgeStyle=orthogonalEdgeStyle;rounded=1;orthogonalLoop=1;jettySize=auto;html=1;exitX=0;exitY=0;exitDx=0;exitDy=0;entryX=1;entryY=1;entryDx=0;entryDy=0;startArrow=classic;startFill=1;endArrow=none;endFill=0;" parent="1" source="SITUzHL4uQJsrREtibzH-23" target="SITUzHL4uQJsrREtibzH-19" edge="1">
          <mxGeometry relative="1" as="geometry" />
        </mxCell>
        <mxCell id="SITUzHL4uQJsrREtibzH-23" value="" style="ellipse;whiteSpace=wrap;html=1;aspect=fixed;" parent="1" vertex="1">
          <mxGeometry x="570" y="360" width="40" height="40" as="geometry" />
        </mxCell>
        <mxCell id="SITUzHL4uQJsrREtibzH-32" style="edgeStyle=orthogonalEdgeStyle;rounded=1;orthogonalLoop=1;jettySize=auto;html=1;exitX=0;exitY=0;exitDx=0;exitDy=0;entryX=0.5;entryY=1;entryDx=0;entryDy=0;startArrow=classic;startFill=1;endArrow=none;endFill=0;" parent="1" source="SITUzHL4uQJsrREtibzH-24" target="SITUzHL4uQJsrREtibzH-23" edge="1">
          <mxGeometry relative="1" as="geometry" />
        </mxCell>
        <mxCell id="SITUzHL4uQJsrREtibzH-24" value="" style="ellipse;whiteSpace=wrap;html=1;aspect=fixed;" parent="1" vertex="1">
          <mxGeometry x="610" y="420" width="40" height="40" as="geometry" />
        </mxCell>
        <mxCell id="SITUzHL4uQJsrREtibzH-34" value="&lt;font style=&quot;font-size: 16px&quot; color=&quot;#9999ff&quot;&gt;&lt;b&gt;Java中HashMap: 数组 + 链表 + 红黑树&lt;/b&gt;&lt;/font&gt;" style="text;html=1;strokeColor=none;fillColor=none;align=center;verticalAlign=middle;whiteSpace=wrap;rounded=0;" parent="1" vertex="1">
          <mxGeometry x="220" y="560" width="380" height="70" as="geometry" />
        </mxCell>
        <mxCell id="ddzBG5LzOeLQfc5O8ZVu-1" value="" style="rounded=1;whiteSpace=wrap;html=1;fillColor=#bac8d3;strokeColor=#23445d;" vertex="1" parent="1">
          <mxGeometry x="30" y="800" width="150" height="200" as="geometry" />
        </mxCell>
        <mxCell id="ddzBG5LzOeLQfc5O8ZVu-2" value="&lt;font style=&quot;font-size: 15px&quot;&gt;&lt;b&gt;hmap&lt;/b&gt;&lt;/font&gt;" style="text;html=1;strokeColor=none;fillColor=none;align=center;verticalAlign=middle;whiteSpace=wrap;rounded=0;" vertex="1" parent="1">
          <mxGeometry x="85" y="770" width="40" height="20" as="geometry" />
        </mxCell>
        <mxCell id="ddzBG5LzOeLQfc5O8ZVu-4" value="count" style="text;html=1;strokeColor=none;fillColor=none;align=center;verticalAlign=middle;whiteSpace=wrap;rounded=0;" vertex="1" parent="1">
          <mxGeometry x="85" y="810" width="40" height="20" as="geometry" />
        </mxCell>
        <mxCell id="ddzBG5LzOeLQfc5O8ZVu-5" value="flags" style="text;html=1;strokeColor=none;fillColor=none;align=center;verticalAlign=middle;whiteSpace=wrap;rounded=0;" vertex="1" parent="1">
          <mxGeometry x="85" y="830" width="40" height="20" as="geometry" />
        </mxCell>
        <mxCell id="ddzBG5LzOeLQfc5O8ZVu-6" value="B" style="text;html=1;strokeColor=none;fillColor=none;align=center;verticalAlign=middle;whiteSpace=wrap;rounded=0;" vertex="1" parent="1">
          <mxGeometry x="85" y="850" width="40" height="20" as="geometry" />
        </mxCell>
        <mxCell id="ddzBG5LzOeLQfc5O8ZVu-7" value="noverflow&lt;span style=&quot;color: rgba(0 , 0 , 0 , 0) ; font-family: monospace ; font-size: 0px&quot;&gt;%3CmxGraphModel%3E%3Croot%3E%3CmxCell%20id%3D%220%22%2F%3E%3CmxCell%20id%3D%221%22%20parent%3D%220%22%2F%3E%3CmxCell%20id%3D%222%22%20value%3D%22B%22%20style%3D%22text%3Bhtml%3D1%3BstrokeColor%3Dnone%3BfillColor%3Dnone%3Balign%3Dcenter%3BverticalAlign%3Dmiddle%3BwhiteSpace%3Dwrap%3Brounded%3D0%3B%22%20vertex%3D%221%22%20parent%3D%221%22%3E%3CmxGeometry%20x%3D%2285%22%20y%3D%22850%22%20width%3D%2240%22%20height%3D%2220%22%20as%3D%22geometry%22%2F%3E%3C%2FmxCell%3E%3C%2Froot%3E%3C%2FmxGraphModel%3E&lt;/span&gt;" style="text;html=1;strokeColor=none;fillColor=none;align=center;verticalAlign=middle;whiteSpace=wrap;rounded=0;" vertex="1" parent="1">
          <mxGeometry x="85" y="870" width="40" height="20" as="geometry" />
        </mxCell>
        <mxCell id="ddzBG5LzOeLQfc5O8ZVu-8" value="hash0" style="text;html=1;strokeColor=none;fillColor=none;align=center;verticalAlign=middle;whiteSpace=wrap;rounded=0;" vertex="1" parent="1">
          <mxGeometry x="85" y="890" width="40" height="20" as="geometry" />
        </mxCell>
        <mxCell id="ddzBG5LzOeLQfc5O8ZVu-9" value="buckets" style="text;html=1;strokeColor=none;fillColor=none;align=center;verticalAlign=middle;whiteSpace=wrap;rounded=0;" vertex="1" parent="1">
          <mxGeometry x="85" y="910" width="40" height="20" as="geometry" />
        </mxCell>
        <mxCell id="ddzBG5LzOeLQfc5O8ZVu-10" value="oldbuckets" style="text;html=1;strokeColor=none;fillColor=none;align=center;verticalAlign=middle;whiteSpace=wrap;rounded=0;" vertex="1" parent="1">
          <mxGeometry x="85" y="930" width="40" height="20" as="geometry" />
        </mxCell>
        <mxCell id="ddzBG5LzOeLQfc5O8ZVu-11" value="nevacuate" style="text;html=1;strokeColor=none;fillColor=none;align=center;verticalAlign=middle;whiteSpace=wrap;rounded=0;" vertex="1" parent="1">
          <mxGeometry x="85" y="950" width="40" height="20" as="geometry" />
        </mxCell>
        <mxCell id="ddzBG5LzOeLQfc5O8ZVu-12" value="extra" style="text;html=1;strokeColor=none;fillColor=none;align=center;verticalAlign=middle;whiteSpace=wrap;rounded=0;" vertex="1" parent="1">
          <mxGeometry x="85" y="970" width="40" height="20" as="geometry" />
        </mxCell>
        <mxCell id="ddzBG5LzOeLQfc5O8ZVu-44" style="edgeStyle=orthogonalEdgeStyle;rounded=1;orthogonalLoop=1;jettySize=auto;html=1;exitX=0.75;exitY=0;exitDx=0;exitDy=0;entryX=0.75;entryY=0;entryDx=0;entryDy=0;endArrow=classic;endFill=1;" edge="1" parent="1" source="ddzBG5LzOeLQfc5O8ZVu-13" target="ddzBG5LzOeLQfc5O8ZVu-26">
          <mxGeometry relative="1" as="geometry" />
        </mxCell>
        <mxCell id="ddzBG5LzOeLQfc5O8ZVu-45" style="edgeStyle=orthogonalEdgeStyle;rounded=1;orthogonalLoop=1;jettySize=auto;html=1;exitX=0.75;exitY=0;exitDx=0;exitDy=0;entryX=0.75;entryY=0;entryDx=0;entryDy=0;endArrow=none;endFill=0;" edge="1" parent="1" source="ddzBG5LzOeLQfc5O8ZVu-13" target="ddzBG5LzOeLQfc5O8ZVu-26">
          <mxGeometry relative="1" as="geometry" />
        </mxCell>
        <mxCell id="ddzBG5LzOeLQfc5O8ZVu-13" value="" style="rounded=1;whiteSpace=wrap;html=1;" vertex="1" parent="1">
          <mxGeometry x="350" y="800" width="220" height="400" as="geometry" />
        </mxCell>
        <mxCell id="ddzBG5LzOeLQfc5O8ZVu-14" style="edgeStyle=orthogonalEdgeStyle;rounded=0;orthogonalLoop=1;jettySize=auto;html=1;exitX=0;exitY=0.25;exitDx=0;exitDy=0;entryX=1;entryY=0.25;entryDx=0;entryDy=0;endArrow=none;endFill=0;" edge="1" parent="1" source="ddzBG5LzOeLQfc5O8ZVu-13" target="ddzBG5LzOeLQfc5O8ZVu-13">
          <mxGeometry relative="1" as="geometry">
            <Array as="points">
              <mxPoint x="440" y="850" />
              <mxPoint x="440" y="850" />
            </Array>
          </mxGeometry>
        </mxCell>
        <mxCell id="ddzBG5LzOeLQfc5O8ZVu-46" style="edgeStyle=orthogonalEdgeStyle;rounded=1;orthogonalLoop=1;jettySize=auto;html=1;exitX=0.75;exitY=0;exitDx=0;exitDy=0;entryX=0.75;entryY=0;entryDx=0;entryDy=0;endArrow=none;endFill=0;" edge="1" parent="1" source="ddzBG5LzOeLQfc5O8ZVu-26" target="ddzBG5LzOeLQfc5O8ZVu-13">
          <mxGeometry relative="1" as="geometry">
            <Array as="points">
              <mxPoint x="515" y="850" />
              <mxPoint x="515" y="850" />
            </Array>
          </mxGeometry>
        </mxCell>
        <mxCell id="ddzBG5LzOeLQfc5O8ZVu-26" value="" style="rounded=0;whiteSpace=wrap;html=1;shadow=0;fillColor=#dae8fc;strokeColor=#6c8ebf;" vertex="1" parent="1">
          <mxGeometry x="350" y="850" width="220" height="20" as="geometry" />
        </mxCell>
        <mxCell id="ddzBG5LzOeLQfc5O8ZVu-28" value="" style="rounded=0;whiteSpace=wrap;html=1;shadow=0;fillColor=#dae8fc;strokeColor=#6c8ebf;" vertex="1" parent="1">
          <mxGeometry x="350" y="870" width="220" height="20" as="geometry" />
        </mxCell>
        <mxCell id="ddzBG5LzOeLQfc5O8ZVu-29" value="" style="rounded=0;whiteSpace=wrap;html=1;shadow=0;fillColor=#dae8fc;strokeColor=#6c8ebf;" vertex="1" parent="1">
          <mxGeometry x="350" y="890" width="220" height="20" as="geometry" />
        </mxCell>
        <mxCell id="ddzBG5LzOeLQfc5O8ZVu-30" value="" style="rounded=0;whiteSpace=wrap;html=1;shadow=0;fillColor=#dae8fc;strokeColor=#6c8ebf;" vertex="1" parent="1">
          <mxGeometry x="350" y="910" width="220" height="20" as="geometry" />
        </mxCell>
        <mxCell id="ddzBG5LzOeLQfc5O8ZVu-31" value="" style="rounded=0;whiteSpace=wrap;html=1;shadow=0;fillColor=#dae8fc;strokeColor=#6c8ebf;" vertex="1" parent="1">
          <mxGeometry x="350" y="930" width="220" height="20" as="geometry" />
        </mxCell>
        <mxCell id="ddzBG5LzOeLQfc5O8ZVu-32" value="" style="rounded=0;whiteSpace=wrap;html=1;shadow=0;fillColor=#dae8fc;strokeColor=#6c8ebf;" vertex="1" parent="1">
          <mxGeometry x="350" y="950" width="220" height="20" as="geometry" />
        </mxCell>
        <mxCell id="ddzBG5LzOeLQfc5O8ZVu-34" value="" style="rounded=0;whiteSpace=wrap;html=1;shadow=0;fillColor=#dae8fc;strokeColor=#6c8ebf;" vertex="1" parent="1">
          <mxGeometry x="350" y="970" width="220" height="20" as="geometry" />
        </mxCell>
        <mxCell id="ddzBG5LzOeLQfc5O8ZVu-35" value="" style="rounded=0;whiteSpace=wrap;html=1;shadow=0;fillColor=#dae8fc;strokeColor=#6c8ebf;" vertex="1" parent="1">
          <mxGeometry x="350" y="990" width="220" height="20" as="geometry" />
        </mxCell>
        <mxCell id="ddzBG5LzOeLQfc5O8ZVu-36" style="edgeStyle=orthogonalEdgeStyle;rounded=0;orthogonalLoop=1;jettySize=auto;html=1;exitX=0;exitY=0.25;exitDx=0;exitDy=0;entryX=1;entryY=0.25;entryDx=0;entryDy=0;endArrow=none;endFill=0;" edge="1" parent="1">
          <mxGeometry relative="1" as="geometry">
            <mxPoint x="350" y="1055" as="sourcePoint" />
            <mxPoint x="570" y="1055" as="targetPoint" />
            <Array as="points">
              <mxPoint x="440" y="1010" />
              <mxPoint x="440" y="1010" />
            </Array>
          </mxGeometry>
        </mxCell>
        <mxCell id="ddzBG5LzOeLQfc5O8ZVu-37" value="" style="rounded=0;whiteSpace=wrap;html=1;shadow=0;fillColor=#d5e8d4;strokeColor=#82b366;" vertex="1" parent="1">
          <mxGeometry x="350" y="1010" width="220" height="20" as="geometry" />
        </mxCell>
        <mxCell id="ddzBG5LzOeLQfc5O8ZVu-38" value="" style="rounded=0;whiteSpace=wrap;html=1;shadow=0;fillColor=#d5e8d4;strokeColor=#82b366;" vertex="1" parent="1">
          <mxGeometry x="350" y="1030" width="220" height="20" as="geometry" />
        </mxCell>
        <mxCell id="ddzBG5LzOeLQfc5O8ZVu-39" value="" style="rounded=0;whiteSpace=wrap;html=1;shadow=0;fillColor=#d5e8d4;strokeColor=#82b366;" vertex="1" parent="1">
          <mxGeometry x="350" y="1050" width="220" height="20" as="geometry" />
        </mxCell>
        <mxCell id="ddzBG5LzOeLQfc5O8ZVu-40" value="" style="rounded=0;whiteSpace=wrap;html=1;shadow=0;fillColor=#d5e8d4;strokeColor=#82b366;" vertex="1" parent="1">
          <mxGeometry x="350" y="1070" width="220" height="20" as="geometry" />
        </mxCell>
        <mxCell id="ddzBG5LzOeLQfc5O8ZVu-41" value="" style="rounded=0;whiteSpace=wrap;html=1;shadow=0;fillColor=#d5e8d4;strokeColor=#82b366;" vertex="1" parent="1">
          <mxGeometry x="350" y="1090" width="220" height="20" as="geometry" />
        </mxCell>
        <mxCell id="ddzBG5LzOeLQfc5O8ZVu-42" value="" style="rounded=0;whiteSpace=wrap;html=1;shadow=0;fillColor=#d5e8d4;strokeColor=#82b366;" vertex="1" parent="1">
          <mxGeometry x="350" y="1110" width="220" height="20" as="geometry" />
        </mxCell>
        <mxCell id="ddzBG5LzOeLQfc5O8ZVu-43" value="" style="rounded=0;whiteSpace=wrap;html=1;shadow=0;fillColor=#d5e8d4;strokeColor=#82b366;" vertex="1" parent="1">
          <mxGeometry x="350" y="1130" width="220" height="20" as="geometry" />
        </mxCell>
        <mxCell id="ddzBG5LzOeLQfc5O8ZVu-15" style="edgeStyle=orthogonalEdgeStyle;rounded=1;orthogonalLoop=1;jettySize=auto;html=1;exitX=1;exitY=0.75;exitDx=0;exitDy=0;entryX=0;entryY=0;entryDx=0;entryDy=0;endArrow=classic;endFill=1;" edge="1" parent="1" source="ddzBG5LzOeLQfc5O8ZVu-9" target="ddzBG5LzOeLQfc5O8ZVu-70">
          <mxGeometry relative="1" as="geometry">
            <Array as="points">
              <mxPoint x="240" y="925" />
              <mxPoint x="240" y="750" />
            </Array>
          </mxGeometry>
        </mxCell>
        <mxCell id="ddzBG5LzOeLQfc5O8ZVu-49" style="edgeStyle=orthogonalEdgeStyle;rounded=1;orthogonalLoop=1;jettySize=auto;html=1;entryX=0.75;entryY=0;entryDx=0;entryDy=0;endArrow=none;endFill=0;exitX=0.5;exitY=0;exitDx=0;exitDy=0;" edge="1" parent="1" source="ddzBG5LzOeLQfc5O8ZVu-26">
          <mxGeometry relative="1" as="geometry">
            <mxPoint x="459.5" y="830" as="sourcePoint" />
            <mxPoint x="459.5" y="800" as="targetPoint" />
            <Array as="points">
              <mxPoint x="460" y="820" />
            </Array>
          </mxGeometry>
        </mxCell>
        <mxCell id="ddzBG5LzOeLQfc5O8ZVu-50" style="edgeStyle=orthogonalEdgeStyle;rounded=1;orthogonalLoop=1;jettySize=auto;html=1;entryX=0.75;entryY=0;entryDx=0;entryDy=0;endArrow=none;endFill=0;" edge="1" parent="1">
          <mxGeometry relative="1" as="geometry">
            <mxPoint x="489" y="850" as="sourcePoint" />
            <mxPoint x="489" y="800" as="targetPoint" />
            <Array as="points">
              <mxPoint x="489.5" y="820" />
            </Array>
          </mxGeometry>
        </mxCell>
        <mxCell id="ddzBG5LzOeLQfc5O8ZVu-51" style="edgeStyle=orthogonalEdgeStyle;rounded=1;orthogonalLoop=1;jettySize=auto;html=1;entryX=0.75;entryY=0;entryDx=0;entryDy=0;endArrow=none;endFill=0;" edge="1" parent="1">
          <mxGeometry relative="1" as="geometry">
            <mxPoint x="540" y="850" as="sourcePoint" />
            <mxPoint x="540" y="800" as="targetPoint" />
            <Array as="points">
              <mxPoint x="540.5" y="820" />
            </Array>
          </mxGeometry>
        </mxCell>
        <mxCell id="ddzBG5LzOeLQfc5O8ZVu-52" style="edgeStyle=orthogonalEdgeStyle;rounded=1;orthogonalLoop=1;jettySize=auto;html=1;entryX=0.75;entryY=0;entryDx=0;entryDy=0;endArrow=none;endFill=0;" edge="1" parent="1">
          <mxGeometry relative="1" as="geometry">
            <mxPoint x="409.5" y="850" as="sourcePoint" />
            <mxPoint x="409.5" y="800" as="targetPoint" />
            <Array as="points">
              <mxPoint x="410" y="820" />
            </Array>
          </mxGeometry>
        </mxCell>
        <mxCell id="ddzBG5LzOeLQfc5O8ZVu-53" style="edgeStyle=orthogonalEdgeStyle;rounded=1;orthogonalLoop=1;jettySize=auto;html=1;entryX=0.75;entryY=0;entryDx=0;entryDy=0;endArrow=none;endFill=0;" edge="1" parent="1">
          <mxGeometry relative="1" as="geometry">
            <mxPoint x="434" y="850" as="sourcePoint" />
            <mxPoint x="434" y="800" as="targetPoint" />
            <Array as="points">
              <mxPoint x="434.5" y="820" />
            </Array>
          </mxGeometry>
        </mxCell>
        <mxCell id="ddzBG5LzOeLQfc5O8ZVu-54" style="edgeStyle=orthogonalEdgeStyle;rounded=1;orthogonalLoop=1;jettySize=auto;html=1;entryX=0.75;entryY=0;entryDx=0;entryDy=0;endArrow=none;endFill=0;fillColor=#E1D5E7;" edge="1" parent="1">
          <mxGeometry relative="1" as="geometry">
            <mxPoint x="380" y="850" as="sourcePoint" />
            <mxPoint x="380" y="800" as="targetPoint" />
            <Array as="points">
              <mxPoint x="380.5" y="820" />
            </Array>
          </mxGeometry>
        </mxCell>
        <mxCell id="ddzBG5LzOeLQfc5O8ZVu-56" value="" style="rounded=0;whiteSpace=wrap;html=1;shadow=0;fillColor=#e1d5e7;strokeColor=#9673a6;" vertex="1" parent="1">
          <mxGeometry x="350" y="1150" width="220" height="50" as="geometry" />
        </mxCell>
        <mxCell id="ddzBG5LzOeLQfc5O8ZVu-59" value="" style="rounded=0;whiteSpace=wrap;html=1;shadow=0;fillColor=#f5f5f5;strokeColor=#666666;fontColor=#333333;" vertex="1" parent="1">
          <mxGeometry x="350" y="800" width="220" height="50" as="geometry" />
        </mxCell>
        <mxCell id="ddzBG5LzOeLQfc5O8ZVu-62" style="edgeStyle=orthogonalEdgeStyle;rounded=1;orthogonalLoop=1;jettySize=auto;html=1;exitX=0.5;exitY=0;exitDx=0;exitDy=0;entryX=0.5;entryY=1;entryDx=0;entryDy=0;endArrow=none;endFill=0;fillColor=#E1D5E7;" edge="1" parent="1" source="ddzBG5LzOeLQfc5O8ZVu-59" target="ddzBG5LzOeLQfc5O8ZVu-59">
          <mxGeometry relative="1" as="geometry">
            <Array as="points">
              <mxPoint x="460" y="825" />
              <mxPoint x="460" y="825" />
            </Array>
          </mxGeometry>
        </mxCell>
        <mxCell id="ddzBG5LzOeLQfc5O8ZVu-65" style="edgeStyle=orthogonalEdgeStyle;rounded=1;orthogonalLoop=1;jettySize=auto;html=1;exitX=0.25;exitY=0;exitDx=0;exitDy=0;entryX=0.25;entryY=1;entryDx=0;entryDy=0;endArrow=none;endFill=0;fillColor=#E1D5E7;" edge="1" parent="1" source="ddzBG5LzOeLQfc5O8ZVu-59" target="ddzBG5LzOeLQfc5O8ZVu-59">
          <mxGeometry relative="1" as="geometry">
            <Array as="points">
              <mxPoint x="405" y="810" />
              <mxPoint x="405" y="810" />
            </Array>
          </mxGeometry>
        </mxCell>
        <mxCell id="ddzBG5LzOeLQfc5O8ZVu-66" style="edgeStyle=orthogonalEdgeStyle;rounded=1;orthogonalLoop=1;jettySize=auto;html=1;exitX=0.75;exitY=0;exitDx=0;exitDy=0;entryX=0.75;entryY=1;entryDx=0;entryDy=0;endArrow=none;endFill=0;fillColor=#E1D5E7;" edge="1" parent="1" source="ddzBG5LzOeLQfc5O8ZVu-59" target="ddzBG5LzOeLQfc5O8ZVu-59">
          <mxGeometry relative="1" as="geometry">
            <Array as="points">
              <mxPoint x="515" y="825" />
              <mxPoint x="515" y="825" />
            </Array>
          </mxGeometry>
        </mxCell>
        <mxCell id="ddzBG5LzOeLQfc5O8ZVu-70" value="" style="rounded=0;whiteSpace=wrap;html=1;shadow=0;fillColor=#f5f5f5;strokeColor=#666666;fontColor=#333333;" vertex="1" parent="1">
          <mxGeometry x="350" y="750" width="220" height="50" as="geometry" />
        </mxCell>
        <mxCell id="ddzBG5LzOeLQfc5O8ZVu-71" style="edgeStyle=orthogonalEdgeStyle;rounded=1;orthogonalLoop=1;jettySize=auto;html=1;exitX=0.25;exitY=0;exitDx=0;exitDy=0;entryX=0.25;entryY=1;entryDx=0;entryDy=0;endArrow=none;endFill=0;fillColor=#E1D5E7;" edge="1" parent="1" source="ddzBG5LzOeLQfc5O8ZVu-70" target="ddzBG5LzOeLQfc5O8ZVu-70">
          <mxGeometry relative="1" as="geometry">
            <Array as="points">
              <mxPoint x="405" y="775" />
              <mxPoint x="405" y="775" />
            </Array>
          </mxGeometry>
        </mxCell>
        <mxCell id="ddzBG5LzOeLQfc5O8ZVu-72" style="edgeStyle=orthogonalEdgeStyle;rounded=1;orthogonalLoop=1;jettySize=auto;html=1;exitX=0.5;exitY=0;exitDx=0;exitDy=0;entryX=0.5;entryY=1;entryDx=0;entryDy=0;endArrow=none;endFill=0;fillColor=#E1D5E7;" edge="1" parent="1" source="ddzBG5LzOeLQfc5O8ZVu-70" target="ddzBG5LzOeLQfc5O8ZVu-70">
          <mxGeometry relative="1" as="geometry">
            <Array as="points">
              <mxPoint x="460" y="770" />
              <mxPoint x="460" y="770" />
            </Array>
          </mxGeometry>
        </mxCell>
        <mxCell id="ddzBG5LzOeLQfc5O8ZVu-73" style="edgeStyle=orthogonalEdgeStyle;rounded=1;orthogonalLoop=1;jettySize=auto;html=1;exitX=0.75;exitY=0;exitDx=0;exitDy=0;entryX=0.75;entryY=1;entryDx=0;entryDy=0;endArrow=none;endFill=0;fillColor=#E1D5E7;" edge="1" parent="1" source="ddzBG5LzOeLQfc5O8ZVu-70" target="ddzBG5LzOeLQfc5O8ZVu-70">
          <mxGeometry relative="1" as="geometry">
            <Array as="points">
              <mxPoint x="515" y="775" />
              <mxPoint x="515" y="775" />
            </Array>
          </mxGeometry>
        </mxCell>
        <mxCell id="ddzBG5LzOeLQfc5O8ZVu-87" value="" style="shape=curlyBracket;whiteSpace=wrap;html=1;rounded=1;flipH=1;shadow=0;fillColor=#f5f5f5;strokeColor=#666666;fontColor=#333333;" vertex="1" parent="1">
          <mxGeometry x="590" y="750" width="20" height="100" as="geometry" />
        </mxCell>
        <mxCell id="ddzBG5LzOeLQfc5O8ZVu-88" value="" style="shape=curlyBracket;whiteSpace=wrap;html=1;rounded=1;flipH=1;shadow=0;fillColor=#dae8fc;strokeColor=#6c8ebf;" vertex="1" parent="1">
          <mxGeometry x="590" y="850" width="20" height="160" as="geometry" />
        </mxCell>
        <mxCell id="ddzBG5LzOeLQfc5O8ZVu-89" value="" style="shape=curlyBracket;whiteSpace=wrap;html=1;rounded=1;flipH=1;shadow=0;fillColor=#d5e8d4;strokeColor=#82b366;" vertex="1" parent="1">
          <mxGeometry x="590" y="1009" width="20" height="141" as="geometry" />
        </mxCell>
        <mxCell id="ddzBG5LzOeLQfc5O8ZVu-91" value="" style="shape=curlyBracket;whiteSpace=wrap;html=1;rounded=1;flipH=1;shadow=0;fillColor=#e1d5e7;strokeColor=#9673a6;" vertex="1" parent="1">
          <mxGeometry x="590" y="1150" width="20" height="50" as="geometry" />
        </mxCell>
        <mxCell id="ddzBG5LzOeLQfc5O8ZVu-92" value="&lt;font style=&quot;font-size: 15px&quot;&gt;&lt;b&gt;tophash&lt;/b&gt;&lt;/font&gt;" style="text;html=1;strokeColor=none;fillColor=none;align=center;verticalAlign=middle;whiteSpace=wrap;rounded=0;shadow=0;" vertex="1" parent="1">
          <mxGeometry x="630" y="790" width="40" height="20" as="geometry" />
        </mxCell>
        <mxCell id="ddzBG5LzOeLQfc5O8ZVu-94" value="&lt;font style=&quot;font-size: 15px&quot;&gt;&lt;b&gt;key&lt;/b&gt;&lt;/font&gt;" style="text;html=1;strokeColor=none;fillColor=none;align=center;verticalAlign=middle;whiteSpace=wrap;rounded=0;shadow=0;" vertex="1" parent="1">
          <mxGeometry x="620" y="920" width="40" height="20" as="geometry" />
        </mxCell>
        <mxCell id="ddzBG5LzOeLQfc5O8ZVu-95" value="&lt;font style=&quot;font-size: 15px&quot;&gt;&lt;b&gt;value&lt;/b&gt;&lt;/font&gt;" style="text;html=1;strokeColor=none;fillColor=none;align=center;verticalAlign=middle;whiteSpace=wrap;rounded=0;shadow=0;" vertex="1" parent="1">
          <mxGeometry x="620" y="1069.5" width="40" height="20" as="geometry" />
        </mxCell>
        <mxCell id="ddzBG5LzOeLQfc5O8ZVu-96" value="&lt;font style=&quot;font-size: 15px&quot;&gt;&lt;b&gt;overflow&lt;/b&gt;&lt;/font&gt;" style="text;html=1;strokeColor=none;fillColor=none;align=center;verticalAlign=middle;whiteSpace=wrap;rounded=0;shadow=0;" vertex="1" parent="1">
          <mxGeometry x="630" y="1165" width="40" height="20" as="geometry" />
        </mxCell>
        <mxCell id="ddzBG5LzOeLQfc5O8ZVu-98" style="edgeStyle=orthogonalEdgeStyle;rounded=1;orthogonalLoop=1;jettySize=auto;html=1;exitX=0.75;exitY=0;exitDx=0;exitDy=0;entryX=0.75;entryY=0;entryDx=0;entryDy=0;endArrow=classic;endFill=1;" edge="1" parent="1" source="ddzBG5LzOeLQfc5O8ZVu-100" target="ddzBG5LzOeLQfc5O8ZVu-103">
          <mxGeometry relative="1" as="geometry" />
        </mxCell>
        <mxCell id="ddzBG5LzOeLQfc5O8ZVu-99" style="edgeStyle=orthogonalEdgeStyle;rounded=1;orthogonalLoop=1;jettySize=auto;html=1;exitX=0.75;exitY=0;exitDx=0;exitDy=0;entryX=0.75;entryY=0;entryDx=0;entryDy=0;endArrow=none;endFill=0;" edge="1" parent="1" source="ddzBG5LzOeLQfc5O8ZVu-100" target="ddzBG5LzOeLQfc5O8ZVu-103">
          <mxGeometry relative="1" as="geometry" />
        </mxCell>
        <mxCell id="ddzBG5LzOeLQfc5O8ZVu-100" value="" style="rounded=1;whiteSpace=wrap;html=1;" vertex="1" parent="1">
          <mxGeometry x="350" y="1250" width="220" height="400" as="geometry" />
        </mxCell>
        <mxCell id="ddzBG5LzOeLQfc5O8ZVu-101" style="edgeStyle=orthogonalEdgeStyle;rounded=0;orthogonalLoop=1;jettySize=auto;html=1;exitX=0;exitY=0.25;exitDx=0;exitDy=0;entryX=1;entryY=0.25;entryDx=0;entryDy=0;endArrow=none;endFill=0;" edge="1" parent="1" source="ddzBG5LzOeLQfc5O8ZVu-100" target="ddzBG5LzOeLQfc5O8ZVu-100">
          <mxGeometry relative="1" as="geometry">
            <Array as="points">
              <mxPoint x="440" y="1300" />
              <mxPoint x="440" y="1300" />
            </Array>
          </mxGeometry>
        </mxCell>
        <mxCell id="ddzBG5LzOeLQfc5O8ZVu-102" style="edgeStyle=orthogonalEdgeStyle;rounded=1;orthogonalLoop=1;jettySize=auto;html=1;exitX=0.75;exitY=0;exitDx=0;exitDy=0;entryX=0.75;entryY=0;entryDx=0;entryDy=0;endArrow=none;endFill=0;" edge="1" parent="1" source="ddzBG5LzOeLQfc5O8ZVu-103" target="ddzBG5LzOeLQfc5O8ZVu-100">
          <mxGeometry relative="1" as="geometry">
            <Array as="points">
              <mxPoint x="515" y="1300" />
              <mxPoint x="515" y="1300" />
            </Array>
          </mxGeometry>
        </mxCell>
        <mxCell id="ddzBG5LzOeLQfc5O8ZVu-103" value="" style="rounded=0;whiteSpace=wrap;html=1;shadow=0;fillColor=#dae8fc;strokeColor=#6c8ebf;" vertex="1" parent="1">
          <mxGeometry x="350" y="1300" width="220" height="20" as="geometry" />
        </mxCell>
        <mxCell id="ddzBG5LzOeLQfc5O8ZVu-104" value="" style="rounded=0;whiteSpace=wrap;html=1;shadow=0;fillColor=#dae8fc;strokeColor=#6c8ebf;" vertex="1" parent="1">
          <mxGeometry x="350" y="1320" width="220" height="20" as="geometry" />
        </mxCell>
        <mxCell id="ddzBG5LzOeLQfc5O8ZVu-105" value="" style="rounded=0;whiteSpace=wrap;html=1;shadow=0;fillColor=#dae8fc;strokeColor=#6c8ebf;" vertex="1" parent="1">
          <mxGeometry x="350" y="1340" width="220" height="20" as="geometry" />
        </mxCell>
        <mxCell id="ddzBG5LzOeLQfc5O8ZVu-106" value="" style="rounded=0;whiteSpace=wrap;html=1;shadow=0;fillColor=#dae8fc;strokeColor=#6c8ebf;" vertex="1" parent="1">
          <mxGeometry x="350" y="1360" width="220" height="20" as="geometry" />
        </mxCell>
        <mxCell id="ddzBG5LzOeLQfc5O8ZVu-107" value="" style="rounded=0;whiteSpace=wrap;html=1;shadow=0;fillColor=#dae8fc;strokeColor=#6c8ebf;" vertex="1" parent="1">
          <mxGeometry x="350" y="1380" width="220" height="20" as="geometry" />
        </mxCell>
        <mxCell id="ddzBG5LzOeLQfc5O8ZVu-108" value="" style="rounded=0;whiteSpace=wrap;html=1;shadow=0;fillColor=#dae8fc;strokeColor=#6c8ebf;" vertex="1" parent="1">
          <mxGeometry x="350" y="1400" width="220" height="20" as="geometry" />
        </mxCell>
        <mxCell id="ddzBG5LzOeLQfc5O8ZVu-109" value="" style="rounded=0;whiteSpace=wrap;html=1;shadow=0;fillColor=#dae8fc;strokeColor=#6c8ebf;" vertex="1" parent="1">
          <mxGeometry x="350" y="1420" width="220" height="20" as="geometry" />
        </mxCell>
        <mxCell id="ddzBG5LzOeLQfc5O8ZVu-110" value="" style="rounded=0;whiteSpace=wrap;html=1;shadow=0;fillColor=#dae8fc;strokeColor=#6c8ebf;" vertex="1" parent="1">
          <mxGeometry x="350" y="1440" width="220" height="20" as="geometry" />
        </mxCell>
        <mxCell id="ddzBG5LzOeLQfc5O8ZVu-111" style="edgeStyle=orthogonalEdgeStyle;rounded=0;orthogonalLoop=1;jettySize=auto;html=1;exitX=0;exitY=0.25;exitDx=0;exitDy=0;entryX=1;entryY=0.25;entryDx=0;entryDy=0;endArrow=none;endFill=0;" edge="1" parent="1">
          <mxGeometry relative="1" as="geometry">
            <mxPoint x="350" y="1505" as="sourcePoint" />
            <mxPoint x="570" y="1505" as="targetPoint" />
            <Array as="points">
              <mxPoint x="440" y="1460" />
              <mxPoint x="440" y="1460" />
            </Array>
          </mxGeometry>
        </mxCell>
        <mxCell id="ddzBG5LzOeLQfc5O8ZVu-112" value="" style="rounded=0;whiteSpace=wrap;html=1;shadow=0;fillColor=#d5e8d4;strokeColor=#82b366;" vertex="1" parent="1">
          <mxGeometry x="350" y="1460" width="220" height="20" as="geometry" />
        </mxCell>
        <mxCell id="ddzBG5LzOeLQfc5O8ZVu-113" value="" style="rounded=0;whiteSpace=wrap;html=1;shadow=0;fillColor=#d5e8d4;strokeColor=#82b366;" vertex="1" parent="1">
          <mxGeometry x="350" y="1480" width="220" height="20" as="geometry" />
        </mxCell>
        <mxCell id="ddzBG5LzOeLQfc5O8ZVu-114" value="" style="rounded=0;whiteSpace=wrap;html=1;shadow=0;fillColor=#d5e8d4;strokeColor=#82b366;" vertex="1" parent="1">
          <mxGeometry x="350" y="1500" width="220" height="20" as="geometry" />
        </mxCell>
        <mxCell id="ddzBG5LzOeLQfc5O8ZVu-115" value="" style="rounded=0;whiteSpace=wrap;html=1;shadow=0;fillColor=#d5e8d4;strokeColor=#82b366;" vertex="1" parent="1">
          <mxGeometry x="350" y="1520" width="220" height="20" as="geometry" />
        </mxCell>
        <mxCell id="ddzBG5LzOeLQfc5O8ZVu-116" value="" style="rounded=0;whiteSpace=wrap;html=1;shadow=0;fillColor=#d5e8d4;strokeColor=#82b366;" vertex="1" parent="1">
          <mxGeometry x="350" y="1540" width="220" height="20" as="geometry" />
        </mxCell>
        <mxCell id="ddzBG5LzOeLQfc5O8ZVu-117" value="" style="rounded=0;whiteSpace=wrap;html=1;shadow=0;fillColor=#d5e8d4;strokeColor=#82b366;" vertex="1" parent="1">
          <mxGeometry x="350" y="1560" width="220" height="20" as="geometry" />
        </mxCell>
        <mxCell id="ddzBG5LzOeLQfc5O8ZVu-118" value="" style="rounded=0;whiteSpace=wrap;html=1;shadow=0;fillColor=#d5e8d4;strokeColor=#82b366;" vertex="1" parent="1">
          <mxGeometry x="350" y="1580" width="220" height="20" as="geometry" />
        </mxCell>
        <mxCell id="ddzBG5LzOeLQfc5O8ZVu-119" style="edgeStyle=orthogonalEdgeStyle;rounded=1;orthogonalLoop=1;jettySize=auto;html=1;entryX=0.75;entryY=0;entryDx=0;entryDy=0;endArrow=none;endFill=0;exitX=0.5;exitY=0;exitDx=0;exitDy=0;" edge="1" parent="1" source="ddzBG5LzOeLQfc5O8ZVu-103">
          <mxGeometry relative="1" as="geometry">
            <mxPoint x="459.5" y="1280" as="sourcePoint" />
            <mxPoint x="459.5" y="1250" as="targetPoint" />
            <Array as="points">
              <mxPoint x="460" y="1270" />
            </Array>
          </mxGeometry>
        </mxCell>
        <mxCell id="ddzBG5LzOeLQfc5O8ZVu-120" style="edgeStyle=orthogonalEdgeStyle;rounded=1;orthogonalLoop=1;jettySize=auto;html=1;entryX=0.75;entryY=0;entryDx=0;entryDy=0;endArrow=none;endFill=0;" edge="1" parent="1">
          <mxGeometry relative="1" as="geometry">
            <mxPoint x="489" y="1300" as="sourcePoint" />
            <mxPoint x="489" y="1250" as="targetPoint" />
            <Array as="points">
              <mxPoint x="489.5" y="1270" />
            </Array>
          </mxGeometry>
        </mxCell>
        <mxCell id="ddzBG5LzOeLQfc5O8ZVu-121" style="edgeStyle=orthogonalEdgeStyle;rounded=1;orthogonalLoop=1;jettySize=auto;html=1;entryX=0.75;entryY=0;entryDx=0;entryDy=0;endArrow=none;endFill=0;" edge="1" parent="1">
          <mxGeometry relative="1" as="geometry">
            <mxPoint x="540" y="1300" as="sourcePoint" />
            <mxPoint x="540" y="1250" as="targetPoint" />
            <Array as="points">
              <mxPoint x="540.5" y="1270" />
            </Array>
          </mxGeometry>
        </mxCell>
        <mxCell id="ddzBG5LzOeLQfc5O8ZVu-122" style="edgeStyle=orthogonalEdgeStyle;rounded=1;orthogonalLoop=1;jettySize=auto;html=1;entryX=0.75;entryY=0;entryDx=0;entryDy=0;endArrow=none;endFill=0;" edge="1" parent="1">
          <mxGeometry relative="1" as="geometry">
            <mxPoint x="409.5" y="1300" as="sourcePoint" />
            <mxPoint x="409.5" y="1250" as="targetPoint" />
            <Array as="points">
              <mxPoint x="410" y="1270" />
            </Array>
          </mxGeometry>
        </mxCell>
        <mxCell id="ddzBG5LzOeLQfc5O8ZVu-123" style="edgeStyle=orthogonalEdgeStyle;rounded=1;orthogonalLoop=1;jettySize=auto;html=1;entryX=0.75;entryY=0;entryDx=0;entryDy=0;endArrow=none;endFill=0;" edge="1" parent="1">
          <mxGeometry relative="1" as="geometry">
            <mxPoint x="434" y="1300" as="sourcePoint" />
            <mxPoint x="434" y="1250" as="targetPoint" />
            <Array as="points">
              <mxPoint x="434.5" y="1270" />
            </Array>
          </mxGeometry>
        </mxCell>
        <mxCell id="ddzBG5LzOeLQfc5O8ZVu-124" style="edgeStyle=orthogonalEdgeStyle;rounded=1;orthogonalLoop=1;jettySize=auto;html=1;entryX=0.75;entryY=0;entryDx=0;entryDy=0;endArrow=none;endFill=0;fillColor=#E1D5E7;" edge="1" parent="1">
          <mxGeometry relative="1" as="geometry">
            <mxPoint x="380" y="1300" as="sourcePoint" />
            <mxPoint x="380" y="1250" as="targetPoint" />
            <Array as="points">
              <mxPoint x="380.5" y="1270" />
            </Array>
          </mxGeometry>
        </mxCell>
        <mxCell id="ddzBG5LzOeLQfc5O8ZVu-125" value="" style="rounded=0;whiteSpace=wrap;html=1;shadow=0;fillColor=#e1d5e7;strokeColor=#9673a6;" vertex="1" parent="1">
          <mxGeometry x="350" y="1600" width="220" height="50" as="geometry" />
        </mxCell>
        <mxCell id="ddzBG5LzOeLQfc5O8ZVu-126" value="" style="rounded=0;whiteSpace=wrap;html=1;shadow=0;fillColor=#f5f5f5;strokeColor=#666666;fontColor=#333333;" vertex="1" parent="1">
          <mxGeometry x="350" y="1250" width="220" height="50" as="geometry" />
        </mxCell>
        <mxCell id="ddzBG5LzOeLQfc5O8ZVu-127" style="edgeStyle=orthogonalEdgeStyle;rounded=1;orthogonalLoop=1;jettySize=auto;html=1;exitX=0.5;exitY=0;exitDx=0;exitDy=0;entryX=0.5;entryY=1;entryDx=0;entryDy=0;endArrow=none;endFill=0;fillColor=#E1D5E7;" edge="1" parent="1" source="ddzBG5LzOeLQfc5O8ZVu-126" target="ddzBG5LzOeLQfc5O8ZVu-126">
          <mxGeometry relative="1" as="geometry">
            <Array as="points">
              <mxPoint x="460" y="1275" />
              <mxPoint x="460" y="1275" />
            </Array>
          </mxGeometry>
        </mxCell>
        <mxCell id="ddzBG5LzOeLQfc5O8ZVu-128" style="edgeStyle=orthogonalEdgeStyle;rounded=1;orthogonalLoop=1;jettySize=auto;html=1;exitX=0.25;exitY=0;exitDx=0;exitDy=0;entryX=0.25;entryY=1;entryDx=0;entryDy=0;endArrow=none;endFill=0;fillColor=#E1D5E7;" edge="1" parent="1" source="ddzBG5LzOeLQfc5O8ZVu-126" target="ddzBG5LzOeLQfc5O8ZVu-126">
          <mxGeometry relative="1" as="geometry">
            <Array as="points">
              <mxPoint x="405" y="1260" />
              <mxPoint x="405" y="1260" />
            </Array>
          </mxGeometry>
        </mxCell>
        <mxCell id="ddzBG5LzOeLQfc5O8ZVu-129" style="edgeStyle=orthogonalEdgeStyle;rounded=1;orthogonalLoop=1;jettySize=auto;html=1;exitX=0.75;exitY=0;exitDx=0;exitDy=0;entryX=0.75;entryY=1;entryDx=0;entryDy=0;endArrow=none;endFill=0;fillColor=#E1D5E7;" edge="1" parent="1" source="ddzBG5LzOeLQfc5O8ZVu-126" target="ddzBG5LzOeLQfc5O8ZVu-126">
          <mxGeometry relative="1" as="geometry">
            <Array as="points">
              <mxPoint x="515" y="1275" />
              <mxPoint x="515" y="1275" />
            </Array>
          </mxGeometry>
        </mxCell>
        <mxCell id="ddzBG5LzOeLQfc5O8ZVu-130" value="" style="rounded=0;whiteSpace=wrap;html=1;shadow=0;fillColor=#f5f5f5;strokeColor=#666666;fontColor=#333333;" vertex="1" parent="1">
          <mxGeometry x="350" y="1200" width="220" height="50" as="geometry" />
        </mxCell>
        <mxCell id="ddzBG5LzOeLQfc5O8ZVu-131" style="edgeStyle=orthogonalEdgeStyle;rounded=1;orthogonalLoop=1;jettySize=auto;html=1;exitX=0.25;exitY=0;exitDx=0;exitDy=0;entryX=0.25;entryY=1;entryDx=0;entryDy=0;endArrow=none;endFill=0;fillColor=#E1D5E7;" edge="1" parent="1" source="ddzBG5LzOeLQfc5O8ZVu-130" target="ddzBG5LzOeLQfc5O8ZVu-130">
          <mxGeometry relative="1" as="geometry">
            <Array as="points">
              <mxPoint x="405" y="1225" />
              <mxPoint x="405" y="1225" />
            </Array>
          </mxGeometry>
        </mxCell>
        <mxCell id="ddzBG5LzOeLQfc5O8ZVu-132" style="edgeStyle=orthogonalEdgeStyle;rounded=1;orthogonalLoop=1;jettySize=auto;html=1;exitX=0.5;exitY=0;exitDx=0;exitDy=0;entryX=0.5;entryY=1;entryDx=0;entryDy=0;endArrow=none;endFill=0;fillColor=#E1D5E7;" edge="1" parent="1" source="ddzBG5LzOeLQfc5O8ZVu-130" target="ddzBG5LzOeLQfc5O8ZVu-130">
          <mxGeometry relative="1" as="geometry">
            <Array as="points">
              <mxPoint x="460" y="1220" />
              <mxPoint x="460" y="1220" />
            </Array>
          </mxGeometry>
        </mxCell>
        <mxCell id="ddzBG5LzOeLQfc5O8ZVu-133" style="edgeStyle=orthogonalEdgeStyle;rounded=1;orthogonalLoop=1;jettySize=auto;html=1;exitX=0.75;exitY=0;exitDx=0;exitDy=0;entryX=0.75;entryY=1;entryDx=0;entryDy=0;endArrow=none;endFill=0;fillColor=#E1D5E7;" edge="1" parent="1" source="ddzBG5LzOeLQfc5O8ZVu-130" target="ddzBG5LzOeLQfc5O8ZVu-130">
          <mxGeometry relative="1" as="geometry">
            <Array as="points">
              <mxPoint x="515" y="1225" />
              <mxPoint x="515" y="1225" />
            </Array>
          </mxGeometry>
        </mxCell>
        <mxCell id="ddzBG5LzOeLQfc5O8ZVu-134" value="" style="shape=curlyBracket;whiteSpace=wrap;html=1;rounded=1;flipH=1;shadow=0;fillColor=#f5f5f5;strokeColor=#666666;fontColor=#333333;" vertex="1" parent="1">
          <mxGeometry x="590" y="1200" width="20" height="100" as="geometry" />
        </mxCell>
        <mxCell id="ddzBG5LzOeLQfc5O8ZVu-135" value="" style="shape=curlyBracket;whiteSpace=wrap;html=1;rounded=1;flipH=1;shadow=0;fillColor=#dae8fc;strokeColor=#6c8ebf;" vertex="1" parent="1">
          <mxGeometry x="590" y="1300" width="20" height="160" as="geometry" />
        </mxCell>
        <mxCell id="ddzBG5LzOeLQfc5O8ZVu-136" value="" style="shape=curlyBracket;whiteSpace=wrap;html=1;rounded=1;flipH=1;shadow=0;fillColor=#d5e8d4;strokeColor=#82b366;" vertex="1" parent="1">
          <mxGeometry x="590" y="1459" width="20" height="141" as="geometry" />
        </mxCell>
        <mxCell id="ddzBG5LzOeLQfc5O8ZVu-137" value="" style="shape=curlyBracket;whiteSpace=wrap;html=1;rounded=1;flipH=1;shadow=0;fillColor=#e1d5e7;strokeColor=#9673a6;" vertex="1" parent="1">
          <mxGeometry x="590" y="1600" width="20" height="50" as="geometry" />
        </mxCell>
        <mxCell id="ddzBG5LzOeLQfc5O8ZVu-138" value="&lt;font style=&quot;font-size: 15px&quot;&gt;&lt;b&gt;tophash&lt;/b&gt;&lt;/font&gt;" style="text;html=1;strokeColor=none;fillColor=none;align=center;verticalAlign=middle;whiteSpace=wrap;rounded=0;shadow=0;" vertex="1" parent="1">
          <mxGeometry x="630" y="1240" width="40" height="20" as="geometry" />
        </mxCell>
        <mxCell id="ddzBG5LzOeLQfc5O8ZVu-139" value="&lt;font style=&quot;font-size: 15px&quot;&gt;&lt;b&gt;key&lt;/b&gt;&lt;/font&gt;" style="text;html=1;strokeColor=none;fillColor=none;align=center;verticalAlign=middle;whiteSpace=wrap;rounded=0;shadow=0;" vertex="1" parent="1">
          <mxGeometry x="620" y="1370" width="40" height="20" as="geometry" />
        </mxCell>
        <mxCell id="ddzBG5LzOeLQfc5O8ZVu-140" value="&lt;font style=&quot;font-size: 15px&quot;&gt;&lt;b&gt;value&lt;/b&gt;&lt;/font&gt;" style="text;html=1;strokeColor=none;fillColor=none;align=center;verticalAlign=middle;whiteSpace=wrap;rounded=0;shadow=0;" vertex="1" parent="1">
          <mxGeometry x="620" y="1519.5" width="40" height="20" as="geometry" />
        </mxCell>
        <mxCell id="ddzBG5LzOeLQfc5O8ZVu-141" value="&lt;font style=&quot;font-size: 15px&quot;&gt;&lt;b&gt;overflow&lt;/b&gt;&lt;/font&gt;" style="text;html=1;strokeColor=none;fillColor=none;align=center;verticalAlign=middle;whiteSpace=wrap;rounded=0;shadow=0;" vertex="1" parent="1">
          <mxGeometry x="630" y="1615" width="40" height="20" as="geometry" />
        </mxCell>
        <mxCell id="ddzBG5LzOeLQfc5O8ZVu-142" value="" style="shape=curlyBracket;whiteSpace=wrap;html=1;rounded=1;flipH=1;shadow=0;fillColor=#FFFFFF;" vertex="1" parent="1">
          <mxGeometry x="720" y="760" width="20" height="440" as="geometry" />
        </mxCell>
        <mxCell id="ddzBG5LzOeLQfc5O8ZVu-143" value="" style="shape=curlyBracket;whiteSpace=wrap;html=1;rounded=1;flipH=1;shadow=0;fillColor=#FFFFFF;" vertex="1" parent="1">
          <mxGeometry x="720" y="1200" width="20" height="440" as="geometry" />
        </mxCell>
        <mxCell id="ddzBG5LzOeLQfc5O8ZVu-144" value="&lt;font style=&quot;font-size: 16px&quot;&gt;&lt;b&gt;bmap(桶)&lt;/b&gt;&lt;/font&gt;" style="text;html=1;strokeColor=none;fillColor=none;align=center;verticalAlign=middle;whiteSpace=wrap;rounded=0;shadow=0;" vertex="1" parent="1">
          <mxGeometry x="760" y="970" width="40" height="20" as="geometry" />
        </mxCell>
        <mxCell id="ddzBG5LzOeLQfc5O8ZVu-145" value="&lt;font style=&quot;font-size: 16px&quot;&gt;&lt;b&gt;bmap(桶)&lt;/b&gt;&lt;/font&gt;" style="text;html=1;strokeColor=none;fillColor=none;align=center;verticalAlign=middle;whiteSpace=wrap;rounded=0;shadow=0;" vertex="1" parent="1">
          <mxGeometry x="760" y="1410" width="40" height="20" as="geometry" />
        </mxCell>
      </root>
    </mxGraphModel>
  </diagram>
</mxfile>
